<?xml version="1.0" encoding="iso-8859-1"?>
<!-- Generator: Adobe Illustrator 19.0.0, SVG Export Plug-In . SVG Version: 6.00 Build 0)  -->
<svg version="1.1" id="Layer_1" xmlns="http://www.w3.org/2000/svg" xmlns:xlink="http://www.w3.org/1999/xlink" x="0px" y="0px"
	 viewBox="0 0 512.001 512.001" style="enable-background:new 0 0 512.001 512.001;" xml:space="preserve">
<g>
	<g>
		<path d="M502.525,422.239l-62.92-62.92l31.246-31.246c5.992-5.993,6.929-11.715,6.658-15.46
			c-0.396-5.483-3.431-10.381-9.024-14.556c-16.85-12.58-36.921-19.228-58.043-19.228c-22.981,0-44.737,7.939-62.161,22.497
			l-79.78-79.78L440.496,49.546c3.451-3.453,3.451-9.047,0-12.499c-3.453-3.45-9.047-3.45-12.499,0L256.001,209.044L84.004,37.047
			c-3.453-3.45-9.047-3.45-12.499,0c-3.451,3.453-3.451,9.047,0,12.499l171.997,171.997l-79.78,79.78
			c-17.424-14.557-39.18-22.497-62.162-22.497c-21.122,0-41.193,6.649-58.043,19.228c-5.592,4.176-8.628,9.073-9.024,14.556
			c-0.27,3.745,0.666,9.467,6.658,15.461l31.246,31.246L9.476,422.239c-12.634,12.635-12.634,33.192,0,45.827
			c6.317,6.316,14.616,9.475,22.914,9.475c8.298,0,16.597-3.159,22.914-9.475l62.919-62.919l31.245,31.245
			c4.446,4.447,9.255,6.702,14.291,6.702h0.001c5.941,0,11.232-3.05,15.725-9.065c13.833-18.53,20.582-41.499,19.004-64.68
			c-1.392-20.46-9.225-39.873-22.266-55.53l79.775-79.775l79.775,79.775c-13.04,15.657-20.874,35.07-22.266,55.53
			c-1.578,23.18,5.172,46.15,19.004,64.68c4.493,6.016,9.784,9.065,15.726,9.065c5.035,0,9.844-2.254,14.291-6.701l31.246-31.245
			l62.919,62.918c6.317,6.316,14.616,9.475,22.914,9.475s16.597-3.159,22.914-9.475C515.16,455.431,515.16,434.873,502.525,422.239z
			 M42.805,455.566c-2.781,2.782-6.481,4.314-10.415,4.314s-7.635-1.532-10.415-4.314c-2.782-2.781-4.314-6.48-4.314-10.414
			c0-3.935,1.532-7.633,4.314-10.414l62.92-62.919l20.83,20.828L42.805,455.566z M165.323,423.452
			c-0.781,1.048-1.342,1.571-1.664,1.822c-0.332-0.192-0.9-0.589-1.691-1.381L53.651,315.575c-0.791-0.792-1.189-1.359-1.381-1.692
			c0.251-0.322,0.774-0.883,1.823-1.665c13.773-10.282,30.186-15.717,47.467-15.717c21.227,0,41.183,8.266,56.194,23.272
			c0.002,0.002,0.005,0.006,0.007,0.008c0.002,0.002,0.006,0.005,0.008,0.008C185.494,347.52,188.742,392.084,165.323,423.452z
			 M350.033,423.893c-0.791,0.791-1.357,1.188-1.691,1.38c-0.322-0.251-0.881-0.774-1.664-1.822
			c-23.421-31.371-20.171-75.939,7.561-103.669c15.011-15.012,34.972-23.281,56.201-23.281c17.282,0,33.696,5.435,47.467,15.716
			c1.049,0.784,1.572,1.344,1.823,1.666c-0.192,0.332-0.589,0.9-1.381,1.691L350.033,423.893z M490.027,455.566
			c-2.781,2.782-6.481,4.314-10.415,4.314c-3.935,0-7.633-1.532-10.415-4.314l-62.919-62.92l20.83-20.828l62.92,62.919
			c2.782,2.781,4.314,6.48,4.314,10.414C494.341,449.086,492.809,452.784,490.027,455.566z"/>
	</g>
</g>
<g>
</g>
<g>
</g>
<g>
</g>
<g>
</g>
<g>
</g>
<g>
</g>
<g>
</g>
<g>
</g>
<g>
</g>
<g>
</g>
<g>
</g>
<g>
</g>
<g>
</g>
<g>
</g>
<g>
</g>
</svg>
