<?xml version="1.0" encoding="UTF-8" standalone="no"?><!DOCTYPE svg PUBLIC "-//W3C//DTD SVG 1.1//EN" "http://www.w3.org/Graphics/SVG/1.1/DTD/svg11.dtd"><svg width="100%" height="100%" viewBox="0 0 513 513" version="1.1" xmlns="http://www.w3.org/2000/svg" xmlns:xlink="http://www.w3.org/1999/xlink" xml:space="preserve" xmlns:serif="http://www.serif.com/" style="fill-rule:evenodd;clip-rule:evenodd;stroke-linejoin:round;stroke-miterlimit:2;"><g><g><path d="M502.525,422.239l-62.92,-62.92l31.246,-31.246c5.992,-5.993 6.929,-11.715 6.658,-15.46c-0.396,-5.483 -3.431,-10.381 -9.024,-14.556c-16.85,-12.58 -36.921,-19.228 -58.043,-19.228c-22.981,-0 -44.737,7.939 -62.161,22.497l-79.78,-79.78l171.995,-172c3.451,-3.453 3.451,-9.047 0,-12.499c-3.453,-3.45 -9.047,-3.45 -12.499,-0l-171.996,171.997l-171.997,-171.997c-3.453,-3.45 -9.047,-3.45 -12.499,-0c-3.451,3.453 -3.451,9.047 0,12.499l171.997,171.997l-79.78,79.78c-17.424,-14.557 -39.18,-22.497 -62.162,-22.497c-21.122,-0 -41.193,6.649 -58.043,19.228c-5.592,4.176 -8.628,9.073 -9.024,14.556c-0.27,3.745 0.666,9.467 6.658,15.461l31.246,31.246l-62.921,62.922c-12.634,12.635 -12.634,33.192 0,45.827c6.317,6.316 14.616,9.475 22.914,9.475c8.298,-0 16.597,-3.159 22.914,-9.475l62.919,-62.919l31.245,31.245c4.446,4.447 9.255,6.702 14.291,6.702l0.001,-0c5.941,-0 11.232,-3.05 15.725,-9.065c13.833,-18.53 20.582,-41.499 19.004,-64.68c-1.392,-20.46 -9.225,-39.873 -22.266,-55.53l79.775,-79.775l79.775,79.775c-13.04,15.657 -20.874,35.07 -22.266,55.53c-1.578,23.18 5.172,46.15 19.004,64.68c4.493,6.016 9.784,9.065 15.726,9.065c5.035,-0 9.844,-2.254 14.291,-6.701l31.246,-31.245l62.919,62.918c6.317,6.316 14.616,9.475 22.914,9.475c8.298,-0 16.597,-3.159 22.914,-9.475c12.639,-12.635 12.639,-33.193 0.004,-45.827Zm-459.72,33.327c-2.781,2.782 -6.481,4.314 -10.415,4.314c-3.934,-0 -7.635,-1.532 -10.415,-4.314c-2.782,-2.781 -4.314,-6.48 -4.314,-10.414c0,-3.935 1.532,-7.633 4.314,-10.414l62.92,-62.919l20.83,20.828l-62.92,62.919Zm122.518,-32.114c-0.781,1.048 -1.342,1.571 -1.664,1.822c-0.332,-0.192 -0.9,-0.589 -1.691,-1.381l-108.317,-108.318c-0.791,-0.792 -1.189,-1.359 -1.381,-1.692c0.251,-0.322 0.774,-0.883 1.823,-1.665c13.773,-10.282 30.186,-15.717 47.467,-15.717c21.227,-0 41.183,8.266 56.194,23.272c0.002,0.002 0.005,0.006 0.007,0.008c0.002,0.002 0.006,0.005 0.008,0.008c27.725,27.731 30.973,72.295 7.554,103.663Zm184.71,0.441c-0.791,0.791 -1.357,1.188 -1.691,1.38c-0.322,-0.251 -0.881,-0.774 -1.664,-1.822c-23.421,-31.371 -20.171,-75.939 7.561,-103.669c15.011,-15.012 34.972,-23.281 56.201,-23.281c17.282,-0 33.696,5.435 47.467,15.716c1.049,0.784 1.572,1.344 1.823,1.666c-0.192,0.332 -0.589,0.9 -1.381,1.691l-108.316,108.319Zm139.994,31.673c-2.781,2.782 -6.481,4.314 -10.415,4.314c-3.935,-0 -7.633,-1.532 -10.415,-4.314l-62.919,-62.92l20.83,-20.828l62.92,62.919c2.782,2.781 4.314,6.48 4.314,10.414c-0.001,3.935 -1.533,7.633 -4.315,10.415Z" style="fill:#fff;fill-rule:nonzero;"/></g></g></svg>